<svg width="17" height="17" viewBox="0 0 17 17" fill="none" xmlns="http://www.w3.org/2000/svg">
<g id="forward_to_inbox">
<mask id="mask0_46_146" style="mask-type:alpha" maskUnits="userSpaceOnUse" x="0" y="0" width="17" height="17">
<rect id="Bounding box" x="0.5" y="0.5" width="16" height="16" fill="#D9D9D9"/>
</mask>
<g mask="url(#mask0_46_146)">
<path id="forward_to_inbox_2" d="M8.49998 9.1665L3.16665 5.83317V12.4998H9.16665V13.8332H3.16665C2.79998 13.8332 2.48609 13.7026 2.22498 13.4415C1.96387 13.1804 1.83331 12.8665 1.83331 12.4998V4.49984C1.83331 4.13317 1.96387 3.81928 2.22498 3.55817C2.48609 3.29706 2.79998 3.1665 3.16665 3.1665H13.8333C14.2 3.1665 14.5139 3.29706 14.775 3.55817C15.0361 3.81928 15.1666 4.13317 15.1666 4.49984V9.1665H13.8333V5.83317L8.49998 9.1665ZM8.49998 7.83317L13.8333 4.49984H3.16665L8.49998 7.83317ZM13.1666 15.8332L12.2333 14.8998L13.2833 13.8332H10.5V12.4998H13.2833L12.2166 11.4332L13.1666 10.4998L15.8333 13.1665L13.1666 15.8332ZM3.16665 5.83317V13.1665V9.1665V9.2165V4.49984V5.83317Z" fill="white"/>
</g>
</g>
</svg>
