<svg width="17" height="16" viewBox="0 0 17 16" fill="none" xmlns="http://www.w3.org/2000/svg">
<g id="search">
<mask id="mask0_50_20" style="mask-type:alpha" maskUnits="userSpaceOnUse" x="0" y="0" width="17" height="16">
<rect id="Bounding box" x="0.761719" width="16" height="16" fill="#D9D9D9"/>
</mask>
<g mask="url(#mask0_50_20)">
<path id="search_2" d="M13.8284 14L9.62839 9.8C9.29505 10.0667 8.91172 10.2778 8.47839 10.4333C8.04505 10.5889 7.58394 10.6667 7.09505 10.6667C5.88394 10.6667 4.85894 10.2472 4.02005 9.40833C3.18116 8.56944 2.76172 7.54444 2.76172 6.33333C2.76172 5.12222 3.18116 4.09722 4.02005 3.25833C4.85894 2.41944 5.88394 2 7.09505 2C8.30616 2 9.33116 2.41944 10.1701 3.25833C11.0089 4.09722 11.4284 5.12222 11.4284 6.33333C11.4284 6.82222 11.3506 7.28333 11.1951 7.71667C11.0395 8.15 10.8284 8.53333 10.5617 8.86667L14.7617 13.0667L13.8284 14ZM7.09505 9.33333C7.92839 9.33333 8.63672 9.04167 9.22005 8.45833C9.80339 7.875 10.0951 7.16667 10.0951 6.33333C10.0951 5.5 9.80339 4.79167 9.22005 4.20833C8.63672 3.625 7.92839 3.33333 7.09505 3.33333C6.26172 3.33333 5.55339 3.625 4.97005 4.20833C4.38672 4.79167 4.09505 5.5 4.09505 6.33333C4.09505 7.16667 4.38672 7.875 4.97005 8.45833C5.55339 9.04167 6.26172 9.33333 7.09505 9.33333Z" fill="white"/>
</g>
</g>
</svg>
