<svg width="17" height="16" viewBox="0 0 17 16" fill="none" xmlns="http://www.w3.org/2000/svg">
<g id="search">
<mask id="mask0_23_228" style="mask-type:alpha" maskUnits="userSpaceOnUse" x="0" y="0" width="17" height="16">
<rect id="Bounding box" x="0.761902" width="16" height="16" fill="#D9D9D9"/>
</mask>
<g mask="url(#mask0_23_228)">
<path id="search_2" d="M13.8286 14L9.62857 9.8C9.29524 10.0667 8.9119 10.2778 8.47857 10.4333C8.04524 10.5889 7.58412 10.6667 7.09524 10.6667C5.88412 10.6667 4.85912 10.2472 4.02024 9.40833C3.18135 8.56944 2.7619 7.54444 2.7619 6.33333C2.7619 5.12222 3.18135 4.09722 4.02024 3.25833C4.85912 2.41944 5.88412 2 7.09524 2C8.30635 2 9.33135 2.41944 10.1702 3.25833C11.0091 4.09722 11.4286 5.12222 11.4286 6.33333C11.4286 6.82222 11.3508 7.28333 11.1952 7.71667C11.0397 8.15 10.8286 8.53333 10.5619 8.86667L14.7619 13.0667L13.8286 14ZM7.09524 9.33333C7.92857 9.33333 8.6369 9.04167 9.22024 8.45833C9.80357 7.875 10.0952 7.16667 10.0952 6.33333C10.0952 5.5 9.80357 4.79167 9.22024 4.20833C8.6369 3.625 7.92857 3.33333 7.09524 3.33333C6.2619 3.33333 5.55357 3.625 4.97024 4.20833C4.3869 4.79167 4.09524 5.5 4.09524 6.33333C4.09524 7.16667 4.3869 7.875 4.97024 8.45833C5.55357 9.04167 6.2619 9.33333 7.09524 9.33333Z" fill="white"/>
</g>
</g>
</svg>
